<?xml version="1.0" standalone="no"?>
<!DOCTYPE svg PUBLIC "-//W3C//DTD SVG 20010904//EN"
 "http://www.w3.org/TR/2001/REC-SVG-20010904/DTD/svg10.dtd">
<svg version="1.0" xmlns="http://www.w3.org/2000/svg"
 width="500.000000pt" height="500.000000pt" viewBox="0 0 500.000000 500.000000"
 preserveAspectRatio="xMidYMid meet">

<g transform="translate(0.000000,500.000000) scale(0.100000,-0.100000)"
fill="#000000" stroke="none">
<path d="M2098 3770 c-237 -43 -390 -177 -429 -373 -16 -80 0 -172 47 -265 64
-126 189 -240 489 -447 242 -166 342 -260 398 -375 28 -56 32 -74 32 -145 0
-125 -47 -210 -145 -260 -129 -65 -341 -58 -479 15 -104 56 -205 175 -252 299
-31 81 -59 225 -59 303 0 75 -6 98 -26 98 -12 0 -14 -64 -14 -395 0 -388 0
-395 20 -395 13 0 20 7 20 18 0 27 39 59 82 66 46 8 97 -4 203 -49 198 -84
424 -95 616 -30 193 66 299 218 299 430 0 94 -19 177 -58 249 -41 77 -190 220
-325 311 -254 172 -345 239 -409 303 -83 81 -133 171 -149 268 -30 185 63 305
249 321 287 24 524 -197 549 -509 5 -67 9 -78 24 -78 18 0 19 15 19 310 0 303
0 310 -20 310 -15 0 -20 -7 -20 -29 0 -16 -9 -39 -19 -52 -29 -36 -89 -30
-187 19 -130 65 -197 84 -309 88 -55 1 -121 -1 -147 -6z"/>
<path d="M2930 3615 c0 -31 5 -37 48 -59 165 -83 289 -257 349 -485 20 -78 26
-128 30 -271 8 -263 -26 -444 -115 -615 -48 -92 -173 -218 -261 -264 -62 -33
-129 -93 -110 -99 17 -7 209 48 275 78 263 119 424 336 479 644 24 131 16 381
-14 504 -78 311 -265 500 -576 581 -104 28 -105 27 -105 -14z"/>
<path d="M2150 3562 c-47 -23 -62 -55 -57 -122 4 -79 40 -144 121 -225 l71
-70 5 205 c3 113 9 211 13 218 13 20 -110 16 -153 -6z"/>
<path d="M2010 2370 l0 -290 38 -24 c56 -35 125 -56 187 -56 l55 0 0 229 0
230 -140 100 -140 100 0 -289z"/>
</g>
</svg>
